<svg xmlns="http://www.w3.org/2000/svg" data-name="Layer 1" viewBox="0 0 100 125" x="0px" y="0px"><defs><style>
      .cls-1 {
        stroke-width: 0px;
      }
    </style></defs><path class="cls-1" d="m81,32c0-7.17-5.83-13-13-13h-34c-7.17,0-13,5.83-13,13v10c0,1.65,1.35,3,3,3s3-1.35,3-3v-10c0-3.86,3.14-7,7-7h34c3.86,0,7,3.14,7,7v34c0,3.86-3.14,7-7,7h-10c-1.65,0-3,1.35-3,3s1.35,3,3,3h10c7.17,0,13-5.83,13-13v-34Z"/><path class="cls-1" d="m22,70h8v8c0,1.65,1.35,3,3,3s3-1.35,3-3v-8h8c1.65,0,3-1.35,3-3s-1.35-3-3-3h-8v-8c0-1.65-1.35-3-3-3s-3,1.35-3,3v8h-8c-1.65,0-3,1.35-3,3s1.35,3,3,3Z"/><text x="0" y="115" fill="#000000" font-size="5px" font-weight="bold" font-family="'Helvetica Neue', Helvetica, Arial-Unicode, Arial, Sans-serif">Created by Gregor Cresnar</text><text x="0" y="120" fill="#000000" font-size="5px" font-weight="bold" font-family="'Helvetica Neue', Helvetica, Arial-Unicode, Arial, Sans-serif">from the Noun Project</text></svg>